<svg id="Layer_1" data-name="Layer 1" xmlns="http://www.w3.org/2000/svg" viewBox="0 0 232.44 158.74"><defs><style>.cls-1{fill:#fff0ef;}.cls-1,.cls-2,.cls-4,.cls-6{fill-rule:evenodd;}.cls-2{fill:#fff;}.cls-3,.cls-4{fill:#ffada0;}.cls-5{fill:#432d61;}.cls-6{fill:#f2fcfc;}</style></defs><title>building</title><path class="cls-1" d="M176.25,20c0,6.14-26.14,15-34.06,23-4,4-2.4,7.3,3.28,5.37A156.9,156.9,0,0,1,174,41.56a13.12,13.12,0,0,1,11.72,4c28.05,27,25.73,80.5,4.5,112H47.75c-18-18.13-25.51-53.59-20-81.91,1.46-7.5,4.54-10.55,9.6-13.43,4.81-2.74,11.68-5.38,13.25-6.75s1.85-4.53-1.94-4.1c-4,.44-13.79,1.84-9-7,18.17-33.31,60.43-44,93-40.45,10.42,1.13-2.52,5.76-9.68,12.08-4.55,4-.29,3.15,2.24,2.66,28.16-5.45,51-5.74,51,1.4Z"/><polygon class="cls-2" points="159.58 16.11 159.58 10.67 166.2 10.67 166.2 39.57 166.2 45.01 167.78 45.01 167.78 49.58 166.2 49.58 166.2 114.44 167.78 114.44 167.78 119.01 166.2 119.01 166.2 157.53 88.76 157.53 88.76 119.01 87.18 119.01 87.18 114.44 88.76 114.44 88.76 49.58 87.18 49.58 87.18 45.01 88.76 45.01 88.76 39.57 88.76 10.67 95.38 10.67 95.38 16.11 159.58 16.11 159.58 16.11"/><path class="cls-3" d="M152.45,45a.9.9,0,1,1-1.79,0V16.11a.9.9,0,1,1,1.79,0V45ZM104.3,45a.9.9,0,1,1-1.79,0V16.11a.9.9,0,1,1,1.79,0V45Zm8-6.11a.9.9,0,1,1-1.79,0V16.11a.9.9,0,1,1,1.79,0V38.9Zm8-3.62a.9.9,0,0,1-1.79,0V16.11a.9.9,0,1,1,1.79,0V35.28Zm8-3.63a.9.9,0,1,1-1.79,0V16.11a.9.9,0,1,1,1.79,0V31.65Zm8,3.63a.9.9,0,0,1-1.79,0V16.11a.9.9,0,1,1,1.79,0V35.28Zm8,3.62a.9.9,0,1,1-1.79,0V16.11a.9.9,0,1,1,1.79,0V38.9Z"/><polygon class="cls-4" points="88.76 52.61 166.21 52.61 166.21 55.45 88.76 55.45 88.76 52.61 88.76 52.61"/><polygon class="cls-4" points="88.76 119.01 166.21 119.01 166.21 121.84 88.76 121.84 88.76 119.01 88.76 119.01"/><polygon class="cls-4" points="125.12 60.46 132.47 60.46 132.47 76.16 125.12 76.16 125.12 60.46 125.12 60.46"/><polygon class="cls-4" points="102.6 60.46 109.95 60.46 109.95 76.16 102.6 76.16 102.6 60.46 102.6 60.46"/><polygon class="cls-4" points="147.65 95 155 95 155 110.7 147.65 110.7 147.65 95 147.65 95"/><polygon class="cls-4" points="125.12 95 132.47 95 132.47 110.7 125.12 110.7 125.12 95 125.12 95"/><polygon class="cls-4" points="102.6 95 109.95 95 109.95 110.7 102.6 110.7 102.6 95 102.6 95"/><polygon class="cls-4" points="147.65 129.54 155 129.54 155 154.24 147.65 154.24 147.65 129.54 147.65 129.54"/><polygon class="cls-4" points="102.6 129.54 132.47 129.54 132.47 154.24 102.6 154.24 102.6 129.54 102.6 129.54"/><polygon class="cls-4" points="147.65 60.46 155 60.46 155 76.16 147.65 76.16 147.65 60.46 147.65 60.46"/><path class="cls-2" d="M104,131.23a2,2,0,1,1-4.06,0V126H104v5.26Z"/><path class="cls-4" d="M108.1,131.23a2,2,0,0,1-4.07,0V126h4.07v5.26Z"/><path class="cls-2" d="M112.16,131.23a2,2,0,1,1-4.06,0V126h4.06v5.26Z"/><path class="cls-4" d="M116.22,131.23a2,2,0,1,1-4.06,0V126h4.06v5.26Z"/><path class="cls-2" d="M120.28,131.23a2,2,0,1,1-4.06,0V126h4.06v5.26Z"/><path class="cls-4" d="M124.35,131.23a2,2,0,0,1-4.07,0V126h4.07v5.26Z"/><path class="cls-2" d="M128.41,131.23a2,2,0,1,1-4.06,0V126h4.06v5.26Z"/><path class="cls-4" d="M132.47,131.23a2,2,0,1,1-4.06,0V126h4.06v5.26Z"/><path class="cls-5" d="M107.2,126a.9.9,0,1,1,1.79,0v5.26h0v0h0a1.13,1.13,0,0,0,1.14,1.1h0a1.22,1.22,0,0,0,.8-.34,1.1,1.1,0,0,0,.32-.78v0h0V126a.9.9,0,1,1,1.79,0v5.26h0a1.14,1.14,0,0,0,1.14,1.13h0A1.21,1.21,0,0,0,115,132a1.11,1.11,0,0,0,.33-.78h0v0h0V126a.9.9,0,1,1,1.79,0v5.26h0a1.1,1.1,0,0,0,.33.8h0a1.1,1.1,0,0,0,.8.33h0a1.21,1.21,0,0,0,.79-.34,1.11,1.11,0,0,0,.33-.78h0v0h0V126a.9.9,0,1,1,1.79,0v5.26h0a1.11,1.11,0,0,0,.3.77l0,0a1.12,1.12,0,0,0,.8.33h0a1.19,1.19,0,0,0,.79-.34,1.11,1.11,0,0,0,.33-.78h0v0h0V126a.9.9,0,1,1,1.79,0v5.26h0a1.11,1.11,0,0,0,.3.77l0,0a1.12,1.12,0,0,0,.81.33h0a1.22,1.22,0,0,0,.8-.34,1.12,1.12,0,0,0,.32-.77h0v0h0V126a.9.9,0,1,1,1.79,0v5.26h0a1.15,1.15,0,0,0,.3.77l0,0a1.1,1.1,0,0,0,.8.33h0a1.21,1.21,0,0,0,.79-.34,1.11,1.11,0,0,0,.33-.78h0v0a.89.89,0,1,1,1.78,0v0h0a2.86,2.86,0,0,1-.86,2,3,3,0,0,1-2,.86h0a2.89,2.89,0,0,1-2-.82,2.94,2.94,0,0,1-2,.82h0a2.93,2.93,0,0,1-2-.82,2.92,2.92,0,0,1-2,.82h0a2.91,2.91,0,0,1-2-.82,2.92,2.92,0,0,1-2,.82h0a2.91,2.91,0,0,1-2-.82,2.94,2.94,0,0,1-2,.82h0a2.89,2.89,0,0,1-2-.82,2.94,2.94,0,0,1-2,.82h0a2.93,2.93,0,0,1-2-.82,2.92,2.92,0,0,1-2,.82h0a2.91,2.91,0,0,1-2-.82,2.92,2.92,0,0,1-2,.82h0a2.91,2.91,0,0,1-2.07-.86h0a2.91,2.91,0,0,1-.85-2.07.9.9,0,1,1,1.79,0,1.1,1.1,0,0,0,.33.8h0a1.1,1.1,0,0,0,.8.33h0a1.21,1.21,0,0,0,.79-.34,1.13,1.13,0,0,0,.33-.77h0v0h0V126a.9.9,0,1,1,1.79,0v5.26h0a1.11,1.11,0,0,0,.3.77l0,0a1.12,1.12,0,0,0,.8.33h0a1.19,1.19,0,0,0,.79-.34,1.09,1.09,0,0,0,.33-.77h0v0h0V126Z"/><path class="cls-5" d="M133.37,157.53a.9.9,0,1,1-1.79,0v-2.39H100.87v2.39a.9.9,0,1,1-1.79,0v-3.28h0v-7.29h0V126a.89.89,0,0,1,.89-.9h32.5a.9.9,0,0,1,.9.9v31.56ZM145.92,146h8.18V126.86h-8.18V146Zm8.18,1.79h-8.18v5.52h8.18v-5.52Zm0,7.31h-8.18v2.39a.9.9,0,0,1-1.8,0V126a.9.9,0,0,1,.9-.9h10a.89.89,0,0,1,.89.9v31.56a.9.9,0,1,1-1.79,0v-2.39ZM94.49,40.47H89.66v3.65h4.83V40.47Zm-4.83-1.79h4.83V11.56H89.66V38.68Zm-1.79,5.44V10.67a.89.89,0,0,1,.89-.9h6.62a.9.9,0,0,1,.9.9v4.54h62.41V10.67a.89.89,0,0,1,.89-.9h6.62a.9.9,0,0,1,.9.9V44.12h.69a.89.89,0,0,1,.89.89v4.57a.89.89,0,0,1-.89.9h-.69V52.6h0v60.93h.69a.89.89,0,0,1,.89.89V119a.89.89,0,0,1-.89.9h-.69v37.62a.9.9,0,1,1-1.79,0V119.91H89.66v37.62a.9.9,0,1,1-1.79,0V119.91h-.69a.9.9,0,0,1-.9-.9v-4.57a.9.9,0,0,1,.9-.89h.69V50.48h-.69a.9.9,0,0,1-.9-.9V45a.9.9,0,0,1,.9-.89ZM96.28,17V44.12h12.77V39.57a.88.88,0,0,1,.58-.83l17.49-7.9a.89.89,0,0,1,.73,0h0l17.53,7.92a.88.88,0,0,1,.52.81h0v4.55h12.77V17Zm64.2,21.68h4.83V11.56h-4.83V38.68Zm4.83,1.79h-4.83v3.65h4.83V40.47Zm-21.19,3.65v-4l-16.64-7.51-16.64,7.51v4Zm1.8,24h8.18V57.78h-8.18V68.11Zm8.18,1.79h-8.18v5.36h8.18V69.9Zm.9,7.15H145a.9.9,0,0,1-.9-.9V56.89a.9.9,0,0,1,.9-.9h10a.89.89,0,0,1,.89.9V76.15a.89.89,0,0,1-.89.9Zm-31.61-8.94h8.19V57.78h-8.19V68.11Zm8.19,1.79h-8.19v5.36h8.19V69.9Zm.89,7.15h-10a.9.9,0,0,1-.9-.9V56.89a.9.9,0,0,1,.9-.9h10a.9.9,0,0,1,.9.9V76.15a.9.9,0,0,1-.9.9Zm-31.6-8.94h8.18V57.78h-8.18V68.11Zm8.18,1.79h-8.18v5.36h8.18V69.9Zm.9,7.15H100a.89.89,0,0,1-.89-.9V56.89A.89.89,0,0,1,100,56h10a.89.89,0,0,1,.89.9V76.15a.89.89,0,0,1-.89.9Zm38.23,11.07h-3.89l.35,2.41h10.74l.35-2.41h-3.9a.89.89,0,0,1-.89-.89V86.7h-1.86v.53a.89.89,0,0,1-.9.89Zm-4.06,4.2h-.25a.9.9,0,0,1-.89-.76l-.61-4.16a1,1,0,0,1,0-.17.89.89,0,0,1,.89-.9h4V85.8a.89.89,0,0,1,.89-.89h3.65a.89.89,0,0,1,.9.89v.53h4a.89.89,0,0,1,.89.9,1,1,0,0,1,0,.17L157,91.56a.88.88,0,0,1-.88.76h-.26V110.7a.89.89,0,0,1-.89.89H145a.9.9,0,0,1-.9-.89V92.32Zm1.8,10.33h8.18V92.32h-8.18v10.33Zm8.18,1.79h-8.18v5.36h8.18v-5.36Zm-30.71-1.79h8.19V92.32h-8.19v10.33Zm8.19,1.79h-8.19v5.36h8.19v-5.36Zm.89,7.15h-10a.89.89,0,0,1-.9-.89V92.32h-.26a.89.89,0,0,1-.88-.76l-.61-4.16a1,1,0,0,1,0-.17.9.9,0,0,1,.9-.9h4V85.8a.89.89,0,0,1,.9-.89h3.87a.89.89,0,0,1,.89.89v.53h3.82a.9.9,0,0,1,.9.9,1,1,0,0,1,0,.17l-.61,4.16a.9.9,0,0,1-.89.76h-.25V110.7a.9.9,0,0,1-.9.89Zm-10-21.06h10.35l.36-2.41h-3.68a.89.89,0,0,1-.9-.89V86.7h-2.08v.53a.89.89,0,0,1-.89.89h-3.9l.35,2.41ZM100.87,109.8h8.18v-5.36h-8.18v5.36Zm8.18-7.15V92.32h-8.18v10.33Zm-5-15.42a.89.89,0,0,1-.9.89H99.24l.35,2.41h10.74l.35-2.41h-3.9a.89.89,0,0,1-.89-.89V86.7H104v.53Zm-5,5.09h-.26a.9.9,0,0,1-.89-.76l-.61-4.16a1,1,0,0,1,0-.17.89.89,0,0,1,.89-.9h4V85.8a.89.89,0,0,1,.89-.89h3.65a.89.89,0,0,1,.9.89v.53h4a.89.89,0,0,1,.89.9.5.5,0,0,1,0,.17L112,91.56a.88.88,0,0,1-.88.76h-.26V110.7a.89.89,0,0,1-.89.89H100a.89.89,0,0,1-.89-.89V92.32Zm66.23-38.81H89.66v60h75.65v-60ZM89.66,51.72h75.65V50.48H89.66v1.24Zm-1.58-3h78.81V45.91H88.08v2.78Zm0,69.43h78.81v-2.78H88.08v2.78Zm36.46,35.23v-5.52H107.9v5.52Zm0-7.31V133a.9.9,0,1,1,1.79,0v13h5.25V126.86H100.87V146h5.24V133a.9.9,0,1,1,1.79,0v13Zm1.79,1.79v5.52h5.25v-5.52Zm-20.22,5.52v-5.52h-5.24v5.52Z"/><path class="cls-5" d="M3.59,158.43a.9.9,0,1,1,0-1.79h226a.9.9,0,1,1,0,1.79Z"/><path class="cls-4" d="M36.59,104.68a18.83,18.83,0,1,1-18.83,18.83,18.83,18.83,0,0,1,18.83-18.83Z"/><path class="cls-6" d="M34.58,106.65a14.43,14.43,0,1,1-14.43,14.42,14.43,14.43,0,0,1,14.43-14.42Z"/><path class="cls-5" d="M40,126a.9.9,0,1,1,1.27,1.27L37.49,131v10.43a17.92,17.92,0,1,0-1.79,0v-4.5l-6.82-6.81a.9.9,0,0,1,1.27-1.27l5.55,5.55V123.51a.9.9,0,0,1,1.79,0v5L40,126Zm-2.46,17.22v14.31a.9.9,0,1,1-1.79,0V143.22a19.71,19.71,0,1,1,1.79,0Z"/><path class="cls-5" d="M70.69,157.53a.9.9,0,1,1-1.79,0v-4.87H52v4.87a.9.9,0,1,1-1.79,0v-4.87H47.71v-1.79h2.45v-1.46H47.71v-1.79h2.45v-1.47H47.71v-1.79H73.14v1.79H70.69v1.47h2.45v1.79H70.69v1.46h2.45v1.79H70.69v4.87ZM52,146.15v1.47h17v-1.47Zm0,3.26v1.46h17v-1.46Z"/></svg>